<svg width="155" height="135" viewBox="0 0 155 135" fill="none" xmlns="http://www.w3.org/2000/svg">
<path d="M22.9131 92.6152C24.4 96.6765 26.1015 100.482 27.9648 104.043L17.7256 121.473H39.6943C42.915 125.289 46.2525 128.66 49.5527 131.617H0L22.9131 92.6152ZM154.65 131.617H105.679C108.957 128.662 112.268 125.292 115.457 121.473H136.925L126.866 104.353C128.721 100.779 130.411 96.955 131.886 92.8701L154.65 131.617ZM103.193 44.0312C98.6443 42.7912 94.031 41.7089 89.6143 40.9443L77.3252 20.0264L65.0088 40.9883C60.6085 41.7399 56.0166 42.7854 51.4893 43.9746L77.3252 0L103.193 44.0312Z" fill="#FFFFFF"/>
<path d="M77.5164 54.905C93.7243 54.9051 121.263 66.8307 121.263 66.8307C121.262 118.445 77.6242 134.371 77.5164 134.41C77.5164 134.41 33.3887 118.092 33.3885 66.4138C33.3885 66.4138 61.3086 54.905 77.5164 54.905ZM77.5164 65.696C68.4129 65.696 61.0331 73.0759 61.033 82.1794C61.0331 88.9385 65.1022 94.7461 70.9236 97.2897V110.751C70.924 114.392 73.8753 117.343 77.5164 117.343C81.1575 117.343 84.1098 114.392 84.1102 110.751V97.2897C89.9312 94.746 93.9997 88.9382 93.9998 82.1794C93.9998 73.0759 86.6198 65.6961 77.5164 65.696Z" fill="#FFFFFF"/>
</svg>
