<svg width="256" height="218" viewBox="0 0 256 218" fill="none" xmlns="http://www.w3.org/2000/svg">
<path d="M209.865 192.682H46.1349L128 49.9435L209.865 192.682ZM75.1247 175.889H180.875L128 83.6931L75.1247 175.889Z" fill="#38BA73"/>
<path d="M256 217.872H0L128 0L256 217.872ZM29.3423 201.079H226.658L128 33.151L29.3423 201.079Z" fill="#38BA73"/>
<path d="M127.252 201C127.252 201 69 179.449 69 111.199C69 111.199 105.856 96 127.252 96C148.647 96 185 111.75 185 111.75C185 180 127.252 201 127.252 201Z" fill="#081C15"/>
<path d="M128.192 111.388C137.649 111.388 145.316 119.055 145.316 128.512C145.316 135.534 141.089 141.568 135.041 144.21V158.196C135.041 161.979 131.974 165.046 128.191 165.046C124.408 165.046 121.341 161.979 121.341 158.196V144.208C115.295 141.566 111.068 135.533 111.068 128.512C111.068 119.055 118.735 111.388 128.192 111.388Z" fill="#1E1E1E"/>
<path d="M127.191 108.469C143.452 108.469 171.082 120.434 171.082 120.434C171.082 172.282 127.191 188.235 127.191 188.235C127.05 188.182 82.9197 171.78 82.9194 120.016C83.0169 119.976 110.958 108.469 127.191 108.469ZM127.19 128.76C121.394 128.761 116.695 133.459 116.695 139.255C116.695 143.558 119.286 147.254 122.992 148.874V157.448C122.992 159.766 124.872 161.645 127.19 161.646C129.508 161.646 131.388 159.766 131.388 157.448V148.875C135.095 147.256 137.686 143.559 137.686 139.255C137.686 133.459 132.986 128.76 127.19 128.76Z" fill="#38BA73"/>
</svg>
